<?xml version="1.0" standalone="no"?>
<svg xmlns="http://www.w3.org/2000/svg" viewBox="0 0 181.81738461538464 53" width="181.81738461538464" height="53"><rect fill="none" stroke="#f1fc50" stroke-width="3" width="178.81738461538464" height="50" x="1.5" y="1.5"></rect><g fill="#9a0c0a" color="#9a0c0a" transform="translate(12, 12) scale(0.5576924)"><svg width="41.0" height="52.0" x="0.0" y="0.0" viewBox="0 0 41 52"><path fill="currentColor" fill-rule="evenodd" d="M20.07.578C9.017.578 0 9.594 0 20.648c0 5.528 2.254 10.546 5.584 14.324l14.184-14.62 14.487 14.62c3.633-3.778 5.887-8.796 5.887-14.323C40.142 9.594 31.125.578 20.07.578m-6.639 43.446h5.978v-5.978h-5.978v5.978zm7.299 0h5.979v-5.978h-5.98v5.978zm-7.299 7.461h5.978v-5.978h-5.978v5.978zm7.299 0h5.979v-5.978h-5.98v5.978z"></path></svg></g><line x1="45.366" y1="0" x2="45.366" y2="100%" stroke="#f1fc50" stroke-width="3"></line><path fill="#9a0c0a" fill-rule="nonzero" d="M2.71 19.61L0 19.61L0 0.17L7.51 0.17L7.51 2.11L2.71 2.11L2.71 8.59L6.43 8.59L6.43 10.51L2.71 10.51L2.71 19.61ZM17.06 19.61L9.38 19.61L9.38 0.17L12.10 0.17L12.10 17.66L17.06 17.66L17.06 19.61ZM23.74 19.82L23.74 19.82Q21.77 19.82 20.59 19.06Q19.42 18.29 18.91 16.86Q18.41 15.43 18.41 13.51L18.41 13.51L18.41 6.14Q18.41 4.22 18.92 2.84Q19.44 1.46 20.60 0.73Q21.77 0 23.74 0L23.74 0Q25.70 0 26.86 0.74Q28.01 1.49 28.52 2.86Q29.04 4.22 29.04 6.14L29.04 6.14L29.04 13.54Q29.04 15.43 28.52 16.85Q28.01 18.26 26.86 19.04Q25.70 19.82 23.74 19.82ZM23.74 17.69L23.74 17.69Q24.82 17.69 25.37 17.24Q25.92 16.80 26.11 16.00Q26.30 15.19 26.30 14.11L26.30 14.11L26.30 5.59Q26.30 4.51 26.11 3.73Q25.92 2.95 25.37 2.53Q24.82 2.11 23.74 2.11L23.74 2.11Q22.66 2.11 22.09 2.53Q21.53 2.95 21.34 3.73Q21.14 4.51 21.14 5.59L21.14 5.59L21.14 14.11Q21.14 15.19 21.34 16.00Q21.53 16.80 22.09 17.24Q22.66 17.69 23.74 17.69ZM34.42 19.61L31.70 19.61L31.70 0.17L39.22 0.17L39.22 2.11L34.42 2.11L34.42 8.59L38.14 8.59L38.14 10.51L34.42 10.51L34.42 19.61ZM46.66 19.61L44.06 19.61L44.06 12.74L39.86 0.17L42.38 0.17L45.36 9.55L48.29 0.17L50.83 0.17L46.66 12.74L46.66 19.61ZM60.84 19.61L58.13 19.61L58.13 0.17L60.84 0.17L60.84 8.57L65.83 8.57L65.83 0.17L68.54 0.17L68.54 19.61L65.83 19.61L65.83 10.51L60.84 10.51L60.84 19.61ZM76.56 19.82L76.56 19.82Q74.59 19.82 73.42 19.06Q72.24 18.29 71.74 16.86Q71.23 15.43 71.23 13.51L71.23 13.51L71.23 6.14Q71.23 4.22 71.75 2.84Q72.26 1.46 73.43 0.73Q74.59 0 76.56 0L76.56 0Q78.53 0 79.68 0.74Q80.83 1.49 81.35 2.86Q81.86 4.22 81.86 6.14L81.86 6.14L81.86 13.54Q81.86 15.43 81.35 16.85Q80.83 18.26 79.68 19.04Q78.53 19.82 76.56 19.82ZM76.56 17.69L76.56 17.69Q77.64 17.69 78.19 17.24Q78.74 16.80 78.94 16.00Q79.13 15.19 79.13 14.11L79.13 14.11L79.13 5.59Q79.13 4.51 78.94 3.73Q78.74 2.95 78.19 2.53Q77.64 2.11 76.56 2.11L76.56 2.11Q75.48 2.11 74.92 2.53Q74.35 2.95 74.16 3.73Q73.97 4.51 73.97 5.59L73.97 5.59L73.97 14.11Q73.97 15.19 74.16 16.00Q74.35 16.80 74.92 17.24Q75.48 17.69 76.56 17.69ZM86.69 19.61L84.48 19.61L84.84 0.17L87.50 0.17L90.94 15.94L94.39 0.17L97.03 0.17L97.39 19.61L95.21 19.61L94.99 5.50L91.70 19.61L90.17 19.61L86.90 5.50L86.69 19.61ZM107.95 19.61L100.37 19.61L100.37 0.17L107.90 0.17L107.90 2.18L103.08 2.18L103.08 8.62L106.99 8.62L106.99 10.54L103.08 10.54L103.08 17.66L107.95 17.66L107.95 19.61Z" transform="translate(58.866 16.696)"></path></svg>